<?xml version="1.0" encoding="UTF-8"?><svg id="Layer_2" xmlns="http://www.w3.org/2000/svg" viewBox="0 0 22.06 51.95"><g id="Elements"><path d="M13.69,.18c-.65,11.91-2.41,23.96-.75,37.19,2.66-4.87,4.87-8.93,7.36-13.49,2.16,3.15,2.16,5.96,.88,8.59-2.8,5.77-5.7,11.51-8.86,17.08-1.97,3.46-4.59,3.11-6.22-.67-.88-2.05-1.41-4.26-2.07-6.4-1.09-3.52-2.17-7.04-3.21-10.58-.33-1.14-.5-2.32-.82-3.82,3.53,.04,3.75,2.7,4.76,4.43,1.09,1.86,1.87,3.9,2.79,5.87,.35-.06,.69-.12,1.04-.19,0-6.5-.23-13.01,.07-19.49,.25-5.44,1.08-10.85,1.71-16.26,.17-1.49,.54-2.96,3.34-2.26Z"/></g></svg>