<?xml version="1.0" encoding="UTF-8"?><svg id="Layer_2" xmlns="http://www.w3.org/2000/svg" viewBox="0 0 21.7 52.41"><g id="Elements"><path d="M11.77,52.41c-3.28-.9-3.15-2.81-3.17-4.51-.11-7.7-.15-15.4-.2-23.1-.02-3.04,0-6.08,0-9.42-1.87,.63-2,2.42-2.81,3.61-.9,1.32-1.57,2.81-2.56,4.04-.36,.44-1.56,.65-2.06,.38C.42,23.12-.03,22.12,0,21.46c.04-.92,.51-1.84,.9-2.71C3.32,13.34,5.78,7.94,8.2,2.52c.62-1.38,1.36-2.86,3.06-2.46,1.08,.25,2.24,1.2,2.87,2.15,.86,1.31,1.28,2.92,1.85,4.42,1.55,4.04,3.07,8.09,4.63,12.13,.68,1.76,2.12,3.91-.08,5.13-2.5,1.38-3.56-1.14-4.69-2.84-.52-.79-.99-1.61-1.96-3.21-1.8,11.82-.62,23.08-2.11,34.57Z"/></g></svg>