<?xml version="1.0" encoding="UTF-8"?><svg id="Layer_2" xmlns="http://www.w3.org/2000/svg" viewBox="0 0 235.72 14.92"><defs><style>.cls-1{fill:#161616;}</style></defs><g id="Layer_1-2"><path class="cls-1" d="M235.71,2.2c-1.16-.12-2.31-.09-3.48-.11-1.15-.01-2.31-.07-3.46-.17-2.56-.24-5.13-.48-7.69-.7-4.94-.43-9.88-.76-14.83-.94-4.54-.17-9.08-.26-13.63-.26-1.18,0-2.35,0-3.53,.02-4.5,.05-9.01,.11-13.51,.23-10.53,.29-21.06,.58-31.58,1.07-10.28,.48-20.56,1-30.83,1.63-5.05,.31-10.1,.6-15.15,.94-5.46,.37-10.92,.69-16.37,1.11-11.25,.86-22.51,1.73-33.76,2.6-9.77,.76-19.5,1.9-29.19,3.33C12.45,11.88,6.22,12.96,0,14.14c0,0,0,0,0,0,7.14,.46,14.29,.7,21.45,.76,4.68,.04,9.36-.05,14.04-.24,3.02-.12,6.04-.29,9.05-.5,1.85-.13,3.7-.33,5.55-.5,4.95-.47,9.9-.95,14.85-1.41,5.66-.53,11.32-1.11,16.99-1.58,5.84-.49,11.68-.99,17.53-1.48,5.25-.44,10.51-.8,15.76-1.2,5.13-.39,10.26-.68,15.39-1.01,5.17-.33,10.34-.58,15.52-.86,5.26-.28,10.54-.43,15.8-.63,9.62-.37,19.25-.49,28.87-.55,5.35-.03,10.71-.23,16.06-.41,5.27-.18,10.55-.42,15.82-.74,2.14-.13,4.3-.22,6.43-.44,1.04-.1,2.07-.23,3.09-.44,.9-.19,1.79-.45,2.7-.62h0c.27-.04,.55-.06,.82-.09,0,0,0,0,0,0Z"/></g></svg>
