<?xml version="1.0" encoding="UTF-8"?><svg id="Layer_2" xmlns="http://www.w3.org/2000/svg" viewBox="0 0 258.48 24.52"><defs><style>.cls-1{fill:#161616;}</style></defs><g id="Layer_1-2"><g><path class="cls-1" d="M3.96,22.46c1.09-.45,2.16-.93,3.2-1.5,.72-.39,.95-1.38,.54-2.07-.2-.34-.53-.59-.91-.7-.1-.03-.19-.04-.28-.05,.42-.43,.85-.86,1.28-1.28,.97-.94,1.93-1.87,2.9-2.81,.28,.37,.56,.75,.85,1.12,1.08,1.41,2.16,2.82,3.25,4.22,1.22,1.58,2.45,3.2,3.92,4.55,.38,.35,.84,.57,1.37,.57s1.01-.2,1.37-.57,.57-.86,.57-1.37c0-.35-.09-.68-.27-.98-.17-.29-.4-.52-.69-.7l-.15-.11c-.7-.57-1.33-1.22-1.96-1.86-.3-.3-.57-.62-.85-.93-.24-.27-.49-.53-.73-.8-1.27-1.46-2.52-2.94-3.77-4.42-.24-.29-.47-.58-.71-.86,2.07-2.01,4.15-4.01,6.23-6.01,.7-.67,.67-1.84,0-2.51-.34-.34-.79-.51-1.24-.51s-.92,.17-1.27,.51c-1.99,1.91-3.97,3.83-5.96,5.75-.17-.21-.33-.42-.5-.63-.46-.58-.92-1.16-1.38-1.75-.34-.43-.68-.87-1.03-1.3-.46-.59-.99-1.12-1.5-1.67-.24-.26-.6-.39-.95-.39-.24,0-.49,.06-.69,.18-.5,.29-.83,.97-.63,1.54,.18,.5,.36,1,.6,1.47,.2,.4,.62,.62,1.05,.66,.96,1.31,1.93,2.62,2.9,3.93-.07,.07-.14,.14-.21,.21-1.01,.98-2.03,1.97-3.04,2.95-.61,.59-1.19,1.21-1.78,1.83-.58,.61-1.14,1.24-1.69,1.88-.57,.67-1.07,1.41-1.6,2.12-.15,.27-.23,.55-.23,.86,0,.45,.18,.88,.5,1.2,.18,.18,.36,.39,.58,.51,.17,.09,.35,.17,.53,.23,.2,.04,.41,.06,.62,.06,.62,.02,1.19-.34,1.73-.6Z"/><path class="cls-1" d="M59.15,12.95s-.06,0-.09,0c-3.76,.39-7.49,.97-11.23,1.54-3.37,.51-6.74,1.05-10.12,1.59-1.69,.27-3.38,.54-5.07,.81-.38,.06-.75,.4-.93,.72-.21,.36-.27,.8-.16,1.2,.11,.39,.37,.73,.72,.93,.39,.23,.77,.23,1.2,.16,7.78-1.23,15.56-2.5,23.37-3.56,.74-.09,1.48-.18,2.22-.26,.43-.05,.78-.14,1.1-.45,.29-.29,.45-.69,.45-1.1s-.16-.81-.45-1.1c-.25-.25-.64-.46-1.01-.46Zm-2.25,3.36c.11-.02,.22-.03,.33-.05h.01c-.12,.01-.23,.03-.35,.05Z"/><path class="cls-1" d="M76.64,15.91c-.61,.45-1.23,.9-1.84,1.35-.58,.42-1.16,.84-1.73,1.27-.43,.32-.85,.66-1.24,1.03-.16,.17-.3,.35-.44,.54-.16,.21-.31,.43-.47,.64-.25,.33-.27,.87-.16,1.25,.12,.43,.39,.72,.75,.97,.26,.18,.53,.23,.83,.28,.14,.02,.28,.04,.42,.06,.28,0,.55-.07,.79-.22,.35-.2,.61-.55,.72-.94,.03-.1,.05-.21,.05-.31,.08-.07,.16-.13,.24-.2,.79-.58,1.62-1.12,2.42-1.69,.74-.53,1.47-1.07,2.21-1.6,.79-.57,1.58-1.15,2.38-1.72,.63-.46,1.26-.91,1.89-1.37,.33,.26,.65,.52,.98,.78,3.02,2.38,6.06,4.74,9.07,7.13,.13,.1,.26,.2,.39,.3,.3,.17,.62,.26,.97,.26,.51,0,1-.2,1.36-.56,.72-.72,.77-2.01,0-2.72-2.82-2.6-5.82-4.99-8.78-7.42-.14-.12-.28-.23-.42-.35,1.33-.96,2.65-1.91,3.98-2.87,.38-.28,.67-.57,.8-1.04,.12-.45,.06-.94-.18-1.35-.23-.39-.61-.68-1.04-.8-.15-.04-.32-.06-.49-.06-.31,0-.62,.07-.86,.24-1.67,1.2-3.33,2.41-5,3.61-2.41-1.97-4.83-3.95-7.24-5.92-.14-.11-.29-.22-.43-.33-.33-.19-.69-.29-1.08-.29-.57,0-1.12,.23-1.52,.63-.4,.4-.63,.95-.63,1.52,0,.52,.21,1.18,.63,1.52,2.23,1.82,4.46,3.65,6.7,5.47-.4,.29-.79,.57-1.19,.86-.94,.68-1.88,1.38-2.82,2.07Z"/><path class="cls-1" d="M143.61,14.56c.05,.01,.11,.03,.16,.04,1.1,.25,2.23-.33,2.54-1.44,.28-1.04-.34-2.3-1.44-2.54-.55-.12-1.09-.17-1.64-.17-.14,0-.28,0-.42,0-.68,.03-1.35,.12-2.02,.19-.5,.05-1.01,.11-1.51,.17-.89,.1-1.77,.2-2.66,.3-2,.22-4,.44-6.01,.65-4.54,.47-9.09,.92-13.64,1.35-3.68,.35-7.36,.69-11.05,1.03-.52,.05-.95,.17-1.33,.55-.35,.35-.55,.83-.55,1.33s.2,.98,.55,1.33c.33,.33,.86,.59,1.33,.55,9.82-.89,19.65-1.82,29.47-2.72,.93-.08,1.86-.17,2.79-.25,.77-.07,1.54-.14,2.32-.21,1.03-.09,2.07-.22,3.1-.17Z"/><path class="cls-1" d="M152.96,15.34c-.31,.31-.59,.64-.87,.98-.28,.34-.54,.7-.78,1.07-.23,.37-.38,.79-.54,1.19-.06,.24-.06,.48,0,.72,.09,.34,.32,.63,.62,.81,.62,.36,1.51,.17,1.86-.49,.17-.32,.34-.62,.55-.92,.75-.92,1.6-1.77,2.46-2.59,.24-.23,.49-.46,.73-.69,.22,.33,.43,.67,.65,1,.33,.5,.7,.99,1.06,1.47,.44,.6,.93,1.16,1.41,1.73,.17,.2,.38,.39,.57,.58,.19,.19,.38,.37,.58,.55,.68,.6,1.39,1.15,2.13,1.67,.34,.24,.84,.27,1.22,.16,.4-.11,.74-.38,.95-.73,.22-.37,.27-.82,.16-1.22-.12-.43-.38-.7-.73-.95-.15-.11-.31-.22-.46-.33-.34-.28-.68-.56-1.01-.85-.39-.34-.74-.71-1.11-1.07-.17-.17-.33-.37-.49-.55-.17-.19-.34-.37-.5-.56-.35-.43-.7-.86-1.05-1.28-.38-.51-.77-1.02-1.15-1.53-.02-.03-.04-.06-.06-.09,.45-.41,.91-.82,1.38-1.22,1.01-.85,2-1.72,3.04-2.54,.22,.15,.48,.23,.75,.23,.33,0,.75-.13,.96-.4,.38-.48,.74-.97,1.1-1.46,.28-.38,.23-.98,0-1.37-.25-.43-.71-.67-1.18-.67-.12,0-.24,.01-.35,.05-.28,.08-.57,.14-.85,.22-.41,.12-.8,.35-1.16,.58-.66,.41-1.25,.92-1.85,1.4-.53,.44-1.07,.87-1.6,1.31-.52,.43-1.04,.87-1.57,1.3-.1,.09-.2,.18-.3,.27-.27-.39-.54-.77-.81-1.16-.19-.28-.39-.55-.58-.83-.29-.41-.58-.83-.88-1.23-.17-.22-.34-.43-.53-.64-.16-.17-.38-.3-.57-.44-.17-.12-.38-.18-.59-.18-.34,0-.69,.14-.92,.37-.41,.41-.45,1-.19,1.5,.19,.38,.38,.75,.59,1.13,.14,.27,.39,.45,.66,.54,.26,.41,.51,.83,.77,1.25,.31,.48,.61,.97,.92,1.45,.02,.04,.05,.08,.07,.11-.45,.41-.91,.83-1.36,1.24-.39,.36-.75,.74-1.12,1.11Z"/><path class="cls-1" d="M223.35,9.1c-.28-.16-.59-.25-.92-.25-.39-.04-.79-.06-1.18-.06-.81,0-1.63,.07-2.44,.15-.9,.09-1.79,.17-2.69,.26-2.01,.21-4.02,.42-6.03,.64-3.91,.43-7.8,.91-11.7,1.37-.24,.03-.47,.06-.7,.09-2.52,.33-5.06,.6-7.56,1.07-1.27,.24-2.52,.55-3.75,.95-.64,.21-1.27,.46-1.89,.73-.6,.25-1.18,.52-1.72,.87-.75,.48-1.05,1.44-.59,2.24,.43,.74,1.49,1.07,2.24,.59,.46-.3,.94-.53,1.44-.75,1.26-.5,2.55-.89,3.87-1.2,1.37-.32,2.77-.53,4.17-.72,2.76-.36,5.51-.68,8.28-.99,1.85-.21,3.69-.44,5.54-.61,1.91-.18,3.81-.38,5.72-.53,1.92-.15,3.85-.33,5.78-.43,1.08-.06,2.15-.13,3.23-.04,.46,.04,.97-.22,1.28-.53,.34-.34,.53-.8,.53-1.28s-.19-.94-.53-1.28c-.12-.1-.24-.19-.37-.28Z"/><path class="cls-1" d="M252.5,7.8c.46-.42,.9-.86,1.34-1.3,.41-.42,.5-1.07,.2-1.58-.24-.41-.69-.65-1.14-.65-.22,0-.44,.06-.64,.18-.51,.31-1.03,.6-1.53,.92-.6,.39-1.15,.85-1.69,1.31-.48,.39-.94,.8-1.41,1.22-1.17-1.48-2.34-2.97-3.51-4.45-.56-.74-1.11-1.48-1.67-2.22-.13-.17-.26-.33-.38-.5-.31-.3-.67-.52-1.08-.63-.21-.06-.43-.09-.65-.09-.43,0-.87,.11-1.25,.34-.55,.32-.96,.85-1.13,1.47-.16,.58-.13,1.39,.25,1.89,1.67,2.24,3.39,4.45,5.1,6.66,.21,.27,.42,.55,.64,.83l-.04,.03c-.69,.62-1.37,1.25-2.05,1.87-.35,.32-.67,.66-1,1-.18,.18-.36,.36-.54,.55-.5,.55-.93,1.13-1.32,1.76-.44,.71-.16,1.68,.55,2.09,.74,.43,1.65,.16,2.09-.55,.16-.25,.31-.5,.48-.74,.33-.41,.69-.79,1.04-1.18,.26-.28,.51-.57,.78-.84,.6-.6,1.19-1.22,1.8-1.8,.32,.38,.63,.75,.95,1.13,2.41,2.86,4.82,5.73,7.33,8.51,.95,1.06,2.72,.97,3.69,0,1.02-1.02,.98-2.66,0-3.69-2.35-2.46-4.6-5.02-6.83-7.59-.51-.6-1.04-1.19-1.55-1.78,.66-.62,1.34-1.22,2.04-1.8,.39,.05,.8-.08,1.11-.36Z"/></g></g></svg>